<svg viewBox="618 0 766 540.916" xmlns:xlink="http://www.w3.org/1999/xlink" version="1.1" xmlns="http://www.w3.org/2000/svg" style="max-height: 500px" width="766" height="540.916"><svg y="0" x="0" viewBox="0 0 553 499" data-id="lg_FkgTpQstyQD70acRWF" data-version="2" height="499" width="2000" xml:space="preserve"><rect fill="transparent" height="100%" width="100%"/><circle transform="translate(73.52 308.79)scale(2.2988)" fill="#e3e3e3" r="10.2"/><circle transform="translate(73.52 268.79)scale(2.2988)" fill="#e3e3e3" r="2"/><circle transform="translate(113.52 228.79)scale(2.2988)" fill="#e3e3e3" r="2"/><circle transform="translate(113.52 308.79)scale(2.2988)" fill="#e3e3e3" r="2"/><circle transform="translate(113.52 268.79)scale(2.2988)" fill="#e3e3e3" r="10.2"/><circle transform="translate(73.52 228.79)scale(2.2988)" fill="#e3e3e3" r="10.2"/><circle transform="translate(73.52 188.79)scale(2.2988)" fill="#e3e3e3" r="2"/><circle transform="translate(113.52 148.79)scale(2.2988)" fill="#e3e3e3" r="2"/><circle transform="translate(73.52 148.79)scale(2.2988)" fill="#e3e3e3" r="10.2"/><circle transform="translate(113.52 188.79)scale(2.2988)" fill="#e3e3e3" r="10.2"/><circle transform="translate(153.51 308.79)scale(2.2988)" fill="#e3e3e3" r="10.2"/><circle transform="translate(153.51 268.79)scale(2.2988)" fill="#e3e3e3" r="2"/><circle transform="translate(193.51 228.79)scale(2.2988)" fill="#e3e3e3" r="2"/><circle transform="translate(193.51 308.79)scale(2.2988)" fill="#e3e3e3" r="2"/><circle transform="translate(193.51 268.79)scale(2.2988)" fill="#e3e3e3" r="10.2"/><circle transform="translate(153.51 228.79)scale(2.2988)" fill="#e3e3e3" r="10.2"/><circle transform="translate(153.51 188.79)scale(2.2988)" fill="#e3e3e3" r="2"/><circle transform="translate(193.51 148.79)scale(2.2988)" fill="#e3e3e3" r="2"/><circle transform="translate(153.51 148.79)scale(2.2988)" fill="#e3e3e3" r="10.2"/><circle transform="translate(233.51 308.79)scale(2.2988)" fill="#e3e3e3" r="10.2"/><circle transform="translate(233.51 268.79)scale(2.2988)" fill="#e3e3e3" r="2"/><circle transform="translate(233.51 228.79)scale(2.2988)" fill="#e3e3e3" r="10.2"/><circle transform="translate(233.51 188.79)scale(2.2988)" fill="#e3e3e3" r="2"/><circle transform="translate(233.51 148.79)scale(2.2988)" fill="#e3e3e3" r="10.2"/><circle transform="translate(193.51 188.79)scale(2.2988)" fill="#e3e3e3" r="10.2"/><circle transform="translate(113.37 188.39)scale(2.2988)" fill="#e3e3e3" r="10.2"/><circle transform="translate(113.37 148.39)scale(2.2988)" fill="#e3e3e3" r="2"/><circle transform="translate(153.37 108.39)scale(2.2988)" fill="#e3e3e3" r="2"/><circle transform="translate(153.37 188.39)scale(2.2988)" fill="#e3e3e3" r="2"/><circle transform="translate(153.37 148.39)scale(2.2988)" fill="#e3e3e3" r="10.2"/><circle transform="translate(113.37 108.39)scale(2.2988)" fill="#e3e3e3" r="10.2"/><circle transform="translate(113.37 68.39)scale(2.2988)" fill="#e3e3e3" r="2"/><circle transform="translate(153.37 28.39)scale(2.2988)" fill="#e3e3e3" r="2"/><circle transform="translate(113.37 28.39)scale(2.2988)" fill="#e3e3e3" r="10.2"/><circle transform="translate(153.37 68.39)scale(2.2988)" fill="#e3e3e3" r="10.2"/><circle transform="translate(193.37 188.39)scale(2.2988)" fill="#e3e3e3" r="10.2"/><circle transform="translate(193.37 148.39)scale(2.2988)" fill="#e3e3e3" r="2"/><circle transform="translate(233.37 108.39)scale(2.2988)" fill="#e3e3e3" r="2"/><circle transform="translate(233.37 188.39)scale(2.2988)" fill="#e3e3e3" r="2"/><circle transform="translate(233.37 148.39)scale(2.2988)" fill="#e3e3e3" r="10.2"/><circle transform="translate(193.37 108.39)scale(2.2988)" fill="#e3e3e3" r="10.2"/><circle transform="translate(193.37 68.39)scale(2.2988)" fill="#e3e3e3" r="2"/><circle transform="translate(233.37 28.39)scale(2.2988)" fill="#e3e3e3" r="2"/><circle transform="translate(193.37 28.39)scale(2.2988)" fill="#e3e3e3" r="10.2"/><circle transform="translate(273.37 188.39)scale(2.2988)" fill="#e3e3e3" r="10.2"/><circle transform="translate(273.37 148.39)scale(2.2988)" fill="#e3e3e3" r="2"/><circle transform="translate(273.37 108.39)scale(2.2988)" fill="#e3e3e3" r="10.2"/><circle transform="translate(273.37 68.39)scale(2.2988)" fill="#e3e3e3" r="2"/><circle transform="translate(273.37 28.39)scale(2.2988)" fill="#e3e3e3" r="10.2"/><circle transform="translate(233.37 68.39)scale(2.2988)" fill="#e3e3e3" r="10.2"/><circle transform="translate(233.68 308.86)scale(2.2988)" fill="#e3e3e3" r="10.2"/><circle transform="translate(233.68 268.86)scale(2.2988)" fill="#e3e3e3" r="2"/><circle transform="translate(273.68 228.86)scale(2.2988)" fill="#e3e3e3" r="2"/><circle transform="translate(273.68 308.86)scale(2.2988)" fill="#e3e3e3" r="2"/><circle transform="translate(273.68 268.86)scale(2.2988)" fill="#e3e3e3" r="10.2"/><circle transform="translate(233.68 228.86)scale(2.2988)" fill="#e3e3e3" r="10.2"/><circle transform="translate(233.68 188.86)scale(2.2988)" fill="#e3e3e3" r="2"/><circle transform="translate(273.68 148.86)scale(2.2988)" fill="#e3e3e3" r="2"/><circle transform="translate(233.68 148.86)scale(2.2988)" fill="#e3e3e3" r="10.2"/><circle transform="translate(273.68 188.86)scale(2.2988)" fill="#e3e3e3" r="10.2"/><circle transform="translate(313.68 308.86)scale(2.2988)" fill="#e3e3e3" r="10.2"/><circle transform="translate(313.68 268.86)scale(2.2988)" fill="#e3e3e3" r="2"/><circle transform="translate(353.68 228.86)scale(2.2988)" fill="#e3e3e3" r="2"/><circle transform="translate(353.68 308.86)scale(2.2988)" fill="#e3e3e3" r="2"/><circle transform="translate(353.68 268.86)scale(2.2988)" fill="#e3e3e3" r="10.2"/><circle transform="translate(313.68 228.86)scale(2.2988)" fill="#e3e3e3" r="10.2"/><circle transform="translate(313.68 188.86)scale(2.2988)" fill="#e3e3e3" r="2"/><circle transform="translate(353.68 148.86)scale(2.2988)" fill="#e3e3e3" r="2"/><circle transform="translate(313.68 148.86)scale(2.2988)" fill="#e3e3e3" r="10.2"/><circle transform="translate(393.68 308.86)scale(2.2988)" fill="#e3e3e3" r="10.2"/><circle transform="translate(393.68 268.86)scale(2.2988)" fill="#e3e3e3" r="2"/><circle transform="translate(393.68 228.86)scale(2.2988)" fill="#e3e3e3" r="10.2"/><circle transform="translate(393.68 188.86)scale(2.2988)" fill="#e3e3e3" r="2"/><circle transform="translate(393.68 148.86)scale(2.2988)" fill="#e3e3e3" r="10.2"/><circle transform="translate(353.68 188.86)scale(2.2988)" fill="#e3e3e3" r="10.2"/><circle transform="translate(314.57 390.25)scale(2.3115)" fill="#e3e3e3" r="10.2"/><circle transform="translate(314.57 350.04)scale(2.3115)" fill="#e3e3e3" r="2"/><circle transform="translate(354.79 309.82)scale(2.3115)" fill="#e3e3e3" r="2"/><circle transform="translate(354.79 390.25)scale(2.3115)" fill="#e3e3e3" r="2"/><circle transform="translate(354.79 350.04)scale(2.3115)" fill="#e3e3e3" r="10.2"/><circle transform="translate(314.57 309.82)scale(2.3115)" fill="#e3e3e3" r="10.2"/><circle transform="translate(314.57 269.6)scale(2.3115)" fill="#e3e3e3" r="2"/><circle transform="translate(354.79 229.38)scale(2.3115)" fill="#e3e3e3" r="2"/><circle transform="translate(314.57 229.38)scale(2.3115)" fill="#e3e3e3" r="10.2"/><circle transform="translate(354.79 269.6)scale(2.3115)" fill="#e3e3e3" r="10.2"/><circle transform="translate(395 390.25)scale(2.3115)" fill="#e3e3e3" r="10.2"/><circle transform="translate(395 350.04)scale(2.3115)" fill="#e3e3e3" r="2"/><circle transform="translate(435.23 309.82)scale(2.3115)" fill="#e3e3e3" r="2"/><circle transform="translate(435.23 390.25)scale(2.3115)" fill="#e3e3e3" r="2"/><circle transform="translate(435.23 350.04)scale(2.3115)" fill="#e3e3e3" r="10.2"/><circle transform="translate(395 309.82)scale(2.3115)" fill="#e3e3e3" r="10.2"/><circle transform="translate(395 269.6)scale(2.3115)" fill="#e3e3e3" r="2"/><circle transform="translate(435.23 229.38)scale(2.3115)" fill="#e3e3e3" r="2"/><circle transform="translate(395 229.38)scale(2.3115)" fill="#e3e3e3" r="10.2"/><circle transform="translate(475.45 390.25)scale(2.3115)" fill="#e3e3e3" r="10.2"/><circle transform="translate(475.45 350.04)scale(2.3115)" fill="#e3e3e3" r="2"/><circle transform="translate(475.45 309.82)scale(2.3115)" fill="#e3e3e3" r="10.2"/><circle transform="translate(475.45 269.6)scale(2.3115)" fill="#e3e3e3" r="2"/><circle transform="translate(475.45 229.38)scale(2.3115)" fill="#e3e3e3" r="10.2"/><circle transform="translate(435.23 269.6)scale(2.3115)" fill="#e3e3e3" r="10.2"/><g transform="translate(276.5 203.65)"><filter y="-20%" x="-20%" height="140%" width="140%" id="a"><feGaussianBlur in="SourceAlpha"/><feOffset result="oBlur"/><feFlood flood-opacity="1" flood-color="#000"/><feComposite operator="in" in2="oBlur"/><feMerge><feMergeNode/><feMergeNode in="SourceGraphic"/></feMerge></filter><g filter="url(#a)"><path d="M-153.365 50.485h-31.32v-35.47q0-6.57.5-13.51.5-6.93 1.07-11.65.58-4.72.72-6.01h-.57l-18.16 66.64h-24.74l-18.31-66.5h-.57q.14 1.29.79 5.94.64 4.65 1.21 11.58.57 6.94.57 13.51v35.47h-29.02v-98.39h44.61l14.87 56.78h.58l14.72-56.78h43.05z" fill="#000000"/><rect transform="translate(-211.78 1.79)" ry="0" rx="0" fill="none" y="-49.2" x="-58.91" height="98.39" width="117.83"/><path d="M-97.165-26.735q19.87 0 31.24 10.08 11.37 10.08 11.37 29.39 0 19.3-11.37 29.38-11.37 10.08-31.24 10.08-19.88 0-31.18-10.01-11.29-10.01-11.29-29.45 0-19.45 11.29-29.46 11.3-10.01 31.18-10.01m0 19.3q-14.02 0-14.02 16.16v8.15q0 16.02 14.02 16.02 14.15 0 14.15-16.02v-8.15q0-16.16-14.15-16.16" fill="#000000"/><rect transform="translate(-96.6 13.23)" ry="0" rx="0" fill="none" y="-39.47" x="-42.54" height="78.93" width="85.08"/><path d="M-4.935-26.735q15.16 0 25.67 5.93 10.51 5.94 10.51 18.38H4.795q0-4.15-3.72-5.86-2.58-1.43-6.44-1.43-10.29 0-10.29 4.86 0 2.71 3.57 3.86 3.58 1.14 11.73 2.43 10.01 1.43 16.73 3.36 6.72 1.93 11.72 6.86 5.01 4.94 5.01 13.8 0 14.45-10.8 20.6-10.79 6.14-28.24 6.14-10.01 0-18.88-2.78-8.86-2.79-14.44-8.66-5.58-5.86-5.58-14.87h26.46v.57q.14 4.87 4.07 6.8 3.94 1.93 8.37 1.93 11.87 0 11.87-5.58 0-2.86-3.72-4.15-3.72-1.28-12.15-2.71-10.16-1.72-16.66-3.72-6.51-2-11.37-6.79-4.86-4.79-4.86-13.37 0-13.88 10.51-19.74 10.51-5.86 27.38-5.86" fill="#000000"/><rect transform="translate(-5.37 13.23)" ry="0" rx="0" fill="none" y="-39.47" x="-38.97" height="78.93" width="77.94"/><path d="M83.865-26.735q17.31 0 28.18 5.79 10.86 5.79 10.86 18.8v29.46q0 2.43 1.15 4.01 1.14 1.57 3.43 1.57h5.15v16.44q-.43.29-2.22.93-1.79.65-5.08 1.29-3.28.64-7.57.64-8.3 0-13.66-2.5-5.36-2.5-7.37-6.93-5.43 4.29-12.15 6.86-6.72 2.57-15.73 2.57-26.6 0-26.6-21.16 0-11.01 5.94-16.8 5.93-5.79 17.08-7.94 11.16-2.14 29.18-2.14V.435q0-4.43-3.08-6.72-3.07-2.29-7.93-2.29-4.44 0-7.66 1.57-3.21 1.58-3.21 5.01v.57h-28.03q-.14-.72-.14-2 0-10.73 10.22-17.02 10.23-6.29 29.24-6.29m10.59 44.33q-12.16 0-17.95 2.64-5.79 2.65-5.79 7.08 0 7.15 9.72 7.15 5.58 0 9.8-3 4.22-3 4.22-7.44z" fill="#000000"/><rect transform="translate(87.94 13.23)" ry="0" rx="0" fill="none" y="-39.47" x="-45.19" height="78.93" width="90.38"/><path d="M171.385-33.885h-28.46v-19.31h28.46zm0 84.37h-28.46v-75.51h28.46z" fill="#000000"/><rect transform="translate(157.66 -.85)" ry="0" rx="0" fill="none" y="-51.84" x="-14.23" height="103.68" width="28.46"/><path d="M228.585-26.735q18.59 0 30.1 7.93 11.51 7.94 11.51 24.24h-27.6q0-12.87-14.01-12.87t-14.01 16.16v8.15q0 16.02 14.58 16.02 14.59 0 14.59-13.16h26.45q0 16.45-11.51 24.46-11.51 8-30.1 8-19.88 0-31.17-10.01-11.3-10.01-11.3-29.45 0-19.45 11.3-29.46 11.29-10.01 31.17-10.01" fill="#000000"/><rect transform="translate(228.66 13.23)" ry="0" rx="0" fill="none" y="-39.47" x="-42.04" height="78.93" width="84.08"/></g></g><path d="M106.465 485.838h-2.49v-21.41h2.49z" fill="#000000"/><rect transform="translate(105.72 475.63)" ry="0" rx="0" fill="none" y="-10.71" x="-1.25" height="21.41" width="2.49"/><path d="M118.425 486.138q-2.17 0-3.83-.9-1.65-.89-2.57-2.72-.93-1.83-.93-4.62 0-2.91.98-4.76.97-1.86 2.69-2.75 1.71-.89 3.89-.89 1.2 0 2.32.24 1.12.24 1.84.61l-.73 2.03q-.73-.29-1.69-.53-.96-.23-1.8-.23-1.67 0-2.77.72-1.11.72-1.66 2.11-.55 1.39-.55 3.42 0 1.95.54 3.33.53 1.38 1.59 2.1 1.07.73 2.66.73 1.28 0 2.3-.27 1.03-.28 1.86-.64v2.17q-.8.41-1.79.63-.99.22-2.35.22" fill="#000000"/><rect transform="translate(117.45 478.32)" ry="0" rx="0" fill="none" y="-8.32" x="-5.86" height="16.64" width="11.72"/><path d="M140.205 477.788q0 1.97-.51 3.53-.52 1.55-1.48 2.62-.97 1.07-2.34 1.63-1.37.57-3.1.57-1.61 0-2.95-.57-1.34-.56-2.31-1.63-.98-1.07-1.51-2.62-.54-1.56-.54-3.53 0-2.64.9-4.49.89-1.86 2.55-2.83 1.67-.97 3.97-.97 2.19 0 3.84.98t2.56 2.83q.92 1.85.92 4.48m-12.22 0q0 1.93.52 3.35.51 1.42 1.58 2.2 1.07.77 2.75.77 1.67 0 2.75-.77 1.07-.78 1.59-2.2.51-1.42.51-3.35 0-1.92-.51-3.32-.52-1.4-1.58-2.16-1.07-.76-2.77-.76-2.51 0-3.67 1.65-1.17 1.66-1.17 4.59" fill="#000000"/><rect transform="translate(133.34 478.32)" ry="0" rx="0" fill="none" y="-8.32" x="-7.37" height="16.64" width="14.74"/><path d="M152.015 469.498q2.85 0 4.32 1.39 1.46 1.4 1.46 4.49v10.46h-2.4v-10.29q0-2.01-.92-3.01-.91-.99-2.8-.99-2.67 0-3.75 1.51-1.08 1.5-1.08 4.38v8.4h-2.44v-16.05h1.97l.36 2.31h.13q.52-.85 1.31-1.43.79-.57 1.77-.87.98-.3 2.07-.3" fill="#000000"/><rect transform="translate(151.6 478.17)" ry="0" rx="0" fill="none" y="-8.17" x="-6.7" height="16.34" width="13.39"/><path d="M162.805 469.788h2.43v16.05h-2.43zm1.25-6.01q.6 0 1.03.39.43.39.43 1.21 0 .81-.43 1.2-.43.4-1.03.4-.63 0-1.05-.4-.42-.39-.42-1.2 0-.82.42-1.21t1.05-.39" fill="#000000"/><rect transform="translate(164.55 475.3)" ry="0" rx="0" fill="none" y="-11.03" x="-1.47" height="22.06" width="2.93"/><path d="M176.815 486.138q-2.17 0-3.83-.9-1.65-.89-2.58-2.72-.92-1.83-.92-4.62 0-2.91.98-4.76.97-1.86 2.68-2.75 1.72-.89 3.9-.89 1.2 0 2.32.24 1.12.24 1.84.61l-.73 2.03q-.73-.29-1.69-.53-.96-.23-1.8-.23-1.67 0-2.77.72-1.11.72-1.66 2.11-.55 1.39-.55 3.42 0 1.95.54 3.33.53 1.38 1.59 2.1 1.06.73 2.66.73 1.28 0 2.3-.27 1.03-.28 1.86-.64v2.17q-.8.41-1.79.63-.99.22-2.35.22" fill="#000000"/><rect transform="translate(175.84 478.32)" ry="0" rx="0" fill="none" y="-8.32" x="-5.86" height="16.64" width="11.72"/><path d="M200.145 469.498q2.86 0 4.32 1.39 1.47 1.4 1.47 4.49v10.46h-2.41v-10.29q0-2.01-.91-3.01-.92-.99-2.81-.99-2.66 0-3.75 1.51-1.08 1.5-1.08 4.38v8.4h-2.43v-16.05h1.96l.37 2.31h.13q.51-.85 1.3-1.43.79-.57 1.78-.87.98-.3 2.06-.3" fill="#000000"/><rect transform="translate(199.74 478.17)" ry="0" rx="0" fill="none" y="-8.17" x="-6.7" height="16.34" width="13.39"/><path d="M221.755 469.788h2.44v16.05h-1.99l-.35-2.25h-.13q-.5.83-1.29 1.4-.79.58-1.78.86-.99.29-2.1.29-1.91 0-3.2-.62-1.29-.61-1.94-1.9-.65-1.29-.65-3.31v-10.52h2.46v10.34q0 2.01.91 3 .91.98 2.77.98 1.79 0 2.85-.67t1.53-1.98q.47-1.31.47-3.22z" fill="#000000"/><rect transform="translate(217.98 478.46)" ry="0" rx="0" fill="none" y="-8.18" x="-6.71" height="16.35" width="13.43"/><path d="M235.055 486.138q-3.05 0-4.83-2.08-1.78-2.08-1.78-6.19 0-4.14 1.82-6.26 1.81-2.11 4.83-2.11 1.28 0 2.23.33.95.34 1.64.9.69.57 1.16 1.29h.17q-.06-.46-.11-1.25-.06-.79-.06-1.29v-6.43h2.43v22.79h-1.96l-.37-2.28h-.1q-.46.72-1.15 1.3-.7.59-1.66.93-.96.35-2.26.35m.38-2.03q2.58 0 3.65-1.46 1.07-1.46 1.07-4.35v-.44q0-3.06-1.02-4.7-1.02-1.64-3.7-1.64-2.24 0-3.36 1.72-1.11 1.72-1.11 4.69 0 2.96 1.11 4.57 1.1 1.61 3.36 1.61" fill="#000000"/><rect transform="translate(236 475.1)" ry="0" rx="0" fill="none" y="-11.54" x="-7.05" height="23.09" width="14.11"/><path d="M253.875 469.498q2.05 0 3.52.9 1.46.91 2.24 2.55.77 1.63.77 3.81v1.51h-11.08q.04 2.83 1.4 4.31 1.36 1.48 3.84 1.48 1.52 0 2.7-.28 1.17-.28 2.43-.82v2.14q-1.22.54-2.41.79-1.2.25-2.82.25-2.32 0-4.04-.95-1.72-.94-2.67-2.77-.95-1.84-.95-4.49 0-2.59.87-4.49.87-1.89 2.46-2.92 1.59-1.02 3.74-1.02m-.03 1.99q-1.95 0-3.1 1.27-1.16 1.28-1.38 3.56h8.5q-.02-1.43-.45-2.52-.43-1.1-1.31-1.7-.88-.61-2.26-.61" fill="#000000"/><rect transform="translate(254.1 478.32)" ry="0" rx="0" fill="none" y="-8.32" x="-6.8" height="16.64" width="13.6"/><path d="M279.875 469.498q3.01 0 4.79 2.06 1.79 2.07 1.79 6.21 0 2.74-.82 4.6-.82 1.86-2.31 2.81-1.48.96-3.51.96-1.27 0-2.24-.34-.96-.34-1.65-.91-.69-.57-1.15-1.24h-.17q.04.57.11 1.37.06.81.06 1.41v6.59h-2.44v-23.23h2.01l.32 2.37h.11q.47-.73 1.15-1.34.67-.61 1.65-.97.97-.35 2.3-.35m-.42 2.05q-1.67 0-2.69.64-1.02.65-1.49 1.93-.47 1.28-.5 3.21v.47q0 2.04.45 3.44.45 1.41 1.48 2.14 1.03.73 2.78.73 1.49 0 2.49-.8.99-.81 1.48-2.25t.49-3.32q0-2.84-1.1-4.52-1.11-1.67-3.39-1.67" fill="#000000"/><rect transform="translate(279.9 481.76)" ry="0" rx="0" fill="none" y="-11.76" x="-7.06" height="23.52" width="14.12"/><path d="M290.685 463.048h2.43v6.81q0 .59-.02 1.18-.03.59-.11 1.09h.16q.5-.85 1.27-1.43.77-.57 1.75-.87.98-.3 2.08-.3 1.94 0 3.23.61 1.3.62 1.95 1.9.65 1.29.65 3.34v10.46h-2.4v-10.29q0-2.01-.92-3.01-.91-.99-2.8-.99-1.79 0-2.85.68t-1.52 2q-.47 1.32-.47 3.22v8.39h-2.43z" fill="#000000"/><rect transform="translate(297.88 474.94)" ry="0" rx="0" fill="none" y="-11.39" x="-6.7" height="22.79" width="13.39"/><path d="M322.925 477.788q0 1.97-.51 3.53-.51 1.55-1.48 2.62-.96 1.07-2.33 1.63-1.37.57-3.1.57-1.61 0-2.95-.57-1.34-.56-2.32-1.63-.97-1.07-1.51-2.62-.53-1.56-.53-3.53 0-2.64.89-4.49.9-1.86 2.56-2.83 1.66-.97 3.96-.97 2.2 0 3.85.98 1.64.98 2.56 2.83.91 1.85.91 4.48m-12.21 0q0 1.93.51 3.35.51 1.42 1.58 2.2 1.07.77 2.76.77 1.67 0 2.74-.77 1.08-.78 1.59-2.2.51-1.42.51-3.35 0-1.92-.51-3.32t-1.58-2.16q-1.07-.76-2.77-.76-2.5 0-3.67 1.65-1.16 1.66-1.16 4.59" fill="#000000"/><rect transform="translate(316.06 478.32)" ry="0" rx="0" fill="none" y="-8.32" x="-7.37" height="16.64" width="14.73"/><path d="M332.315 484.138q.6 0 1.23-.1t1.03-.25v1.89q-.42.19-1.18.32-.75.14-1.47.14-1.28 0-2.32-.45-1.04-.45-1.66-1.52-.62-1.07-.62-2.96v-9.52h-2.29v-1.18l2.3-.96.97-3.48h1.47v3.72h4.7v1.9h-4.7v9.45q0 1.51.69 2.26.7.74 1.85.74" fill="#000000"/><rect transform="translate(330.3 476.6)" ry="0" rx="0" fill="none" y="-10.04" x="-4.77" height="20.07" width="9.54"/><path d="M351.665 477.788q0 1.97-.51 3.53-.51 1.55-1.48 2.62-.96 1.07-2.33 1.63-1.37.57-3.1.57-1.61 0-2.95-.57-1.34-.56-2.32-1.63-.97-1.07-1.51-2.62-.53-1.56-.53-3.53 0-2.64.89-4.49.9-1.86 2.56-2.83 1.66-.97 3.96-.97 2.2 0 3.85.98 1.64.98 2.56 2.83.91 1.85.91 4.48m-12.21 0q0 1.93.51 3.35.51 1.42 1.58 2.2 1.07.77 2.76.77 1.67 0 2.74-.77 1.08-.78 1.59-2.2.52-1.42.52-3.35 0-1.92-.52-3.32-.51-1.4-1.58-2.16-1.07-.76-2.77-.76-2.5 0-3.67 1.65-1.16 1.66-1.16 4.59" fill="#000000"/><rect transform="translate(344.8 478.32)" ry="0" rx="0" fill="none" y="-8.32" x="-7.37" height="16.64" width="14.73"/><path d="M360.355 493.048q-3.16 0-4.88-1.18-1.71-1.18-1.71-3.3 0-1.51.96-2.58t2.66-1.42q-.63-.29-1.08-.88-.45-.59-.45-1.35 0-.88.49-1.54.5-.67 1.51-1.28-1.26-.52-2.05-1.74-.78-1.22-.78-2.85 0-1.73.72-2.95.71-1.22 2.08-1.87 1.36-.64 3.29-.64.43 0 .86.03.43.04.83.11.39.06.69.15h5.5v1.57l-2.96.36q.44.57.74 1.38.29.81.29 1.79 0 2.4-1.63 3.81-1.62 1.42-4.46 1.42-.68 0-1.38-.12-.72.39-1.09.88-.38.48-.38 1.11 0 .47.29.75t.83.4q.54.13 1.3.13h2.83q2.62 0 4.02 1.09 1.4 1.1 1.4 3.21 0 2.67-2.17 4.09t-6.27 1.42m.07-1.9q2 0 3.31-.41 1.31-.4 1.96-1.15.65-.76.65-1.8 0-.97-.44-1.46t-1.29-.66q-.85-.16-2.08-.16h-2.78q-1.08 0-1.89.33-.8.34-1.24 1-.43.66-.43 1.64 0 1.3 1.1 1.98 1.1.69 3.13.69m.63-12.84q1.75 0 2.63-.87.88-.88.88-2.57 0-1.8-.9-2.7-.89-.9-2.64-.9-1.66 0-2.57.93-.9.93-.9 2.72 0 1.64.91 2.52.91.87 2.59.87" fill="#000000"/><rect transform="translate(361.88 481.76)" ry="0" rx="0" fill="none" y="-11.79" x="-7.62" height="23.58" width="15.23"/><path d="M379.455 469.498q.49 0 1.01.05.53.05.94.14l-.31 2.25q-.39-.1-.88-.16-.48-.06-.9-.06-.97 0-1.83.39-.85.39-1.5 1.11-.64.73-1.01 1.75-.37 1.01-.37 2.26v8.61h-2.44v-16.05h2.02l.26 2.96h.11q.49-.9 1.2-1.64.7-.74 1.63-1.17.93-.44 2.07-.44" fill="#000000"/><rect transform="translate(377.29 478.17)" ry="0" rx="0" fill="none" y="-8.17" x="-4.62" height="16.34" width="9.24"/><path d="M390.425 469.528q2.88 0 4.27 1.28 1.39 1.29 1.39 4.12v10.91h-1.77l-.47-2.37h-.12q-.67.88-1.41 1.47-.73.6-1.69.9-.96.3-2.35.3-1.46 0-2.6-.52-1.13-.51-1.79-1.55-.65-1.04-.65-2.64 0-2.4 1.91-3.69 1.9-1.29 5.8-1.4l2.77-.12v-.98q0-2.08-.9-2.92-.89-.83-2.52-.83-1.26 0-2.4.36-1.14.37-2.17.87l-.74-1.85q1.08-.55 2.49-.95 1.4-.39 2.95-.39m3.26 9.88v-1.48l-2.45.11q-3 .11-4.23.98-1.23.86-1.23 2.44 0 1.38.83 2.04.84.66 2.21.66 2.14 0 3.5-1.19 1.37-1.18 1.37-3.56" fill="#000000"/><rect transform="translate(390.16 478.33)" ry="0" rx="0" fill="none" y="-8.3" x="-6.42" height="16.61" width="12.85"/><path d="M408.635 469.498q3.01 0 4.79 2.06 1.79 2.07 1.79 6.21 0 2.74-.82 4.6-.82 1.86-2.31 2.81-1.48.96-3.51.96-1.27 0-2.24-.34-.96-.34-1.65-.91-.69-.57-1.15-1.24h-.17q.04.57.11 1.37.06.81.06 1.41v6.59h-2.44v-23.23h2.01l.32 2.37h.11q.47-.73 1.15-1.34.67-.61 1.65-.97.97-.35 2.3-.35m-.42 2.05q-1.67 0-2.69.64-1.02.65-1.49 1.93-.47 1.28-.5 3.21v.47q0 2.04.45 3.44.45 1.41 1.48 2.14 1.03.73 2.78.73 1.49 0 2.49-.8.99-.81 1.48-2.25t.49-3.32q0-2.84-1.1-4.52-1.11-1.67-3.39-1.67" fill="#000000"/><rect transform="translate(408.65 481.76)" ry="0" rx="0" fill="none" y="-11.76" x="-7.06" height="23.52" width="14.12"/><path d="M419.445 463.048h2.43v6.81q0 .59-.02 1.18-.03.59-.11 1.09h.16q.5-.85 1.27-1.43.77-.57 1.75-.87.98-.3 2.08-.3 1.94 0 3.23.61 1.3.62 1.95 1.9.65 1.29.65 3.34v10.46h-2.4v-10.29q0-2.01-.92-3.01-.91-.99-2.8-.99-1.79 0-2.85.68t-1.52 2q-.47 1.32-.47 3.22v8.39h-2.43z" fill="#000000"/><rect transform="translate(426.64 474.94)" ry="0" rx="0" fill="none" y="-11.39" x="-6.7" height="22.79" width="13.39"/><path d="m441.745 485.868-6.43-16.08h2.6l3.55 9.32q.31.82.57 1.57.26.75.47 1.44.2.69.32 1.34h.1q.21-.74.59-1.93t.82-2.44l3.36-9.3h2.62l-6.99 18.41q-.56 1.48-1.3 2.58t-1.79 1.69q-1.06.6-2.55.6-.69 0-1.22-.09-.52-.08-.9-.18v-1.95q.32.08.78.13.46.06.96.06.91 0 1.57-.34.67-.34 1.15-1 .49-.66.84-1.57z" fill="#000000"/><rect transform="translate(443.31 481.93)" ry="0" rx="0" fill="none" y="-11.64" x="-7.5" height="23.28" width="15"/></svg></svg>